<?xml version="1.0" encoding="UTF-8" standalone="no"?>
<!-- Generator: Adobe Illustrator 19.0.0, SVG Export Plug-In . SVG Version: 6.00 Build 0)  -->

<svg
   xmlns:dc="http://purl.org/dc/elements/1.1/"
   xmlns:cc="http://creativecommons.org/ns#"
   xmlns:rdf="http://www.w3.org/1999/02/22-rdf-syntax-ns#"
   xmlns:svg="http://www.w3.org/2000/svg"
   xmlns="http://www.w3.org/2000/svg"
   xmlns:sodipodi="http://sodipodi.sourceforge.net/DTD/sodipodi-0.dtd"
   xmlns:inkscape="http://www.inkscape.org/namespaces/inkscape"
   version="1.1"
   id="Layer_6"
   x="0px"
   y="0px"
   viewBox="0 0 220 85"
   style="enable-background:new 0 0 220 85;"
   xml:space="preserve"
   inkscape:version="0.91 r13725"
   sodipodi:docname="cypress-logo.svg"><metadata
     id="metadata4349"><rdf:RDF><cc:Work
         rdf:about=""><dc:format>image/svg+xml</dc:format><dc:type
           rdf:resource="http://purl.org/dc/dcmitype/StillImage" /><dc:title></dc:title></cc:Work></rdf:RDF></metadata><defs
     id="defs4347" /><sodipodi:namedview
     pagecolor="#ffffff"
     bordercolor="#666666"
     borderopacity="1"
     objecttolerance="10"
     gridtolerance="10"
     guidetolerance="10"
     inkscape:pageopacity="0"
     inkscape:pageshadow="2"
     inkscape:window-width="1547"
     inkscape:window-height="876"
     id="namedview4345"
     showgrid="false"
     inkscape:zoom="4.2909091"
     inkscape:cx="110"
     inkscape:cy="42.5"
     inkscape:window-x="53"
     inkscape:window-y="24"
     inkscape:window-maximized="1"
     inkscape:current-layer="Layer_6" /><style
     type="text/css"
     id="style4276">
	.st0{fill:#005596;}
	.st1{fill:#055696;}
	.st2{fill:#E2231A;}
</style><g
     id="XMLID_15_"><path
       id="XMLID_244_"
       class="st0"
       d="M70.6,37.2l0.6-0.8l0.4-1c0.1,0.1,0.3,0.2,0.4,0.3c0.3,0.1,0.6,0.4,1,0.4   c0.7,0.1,1-0.5,0.7,0.4c-0.1,0.4-0.3,0.6-0.5,0.8H70.6" /><path
       id="XMLID_243_"
       class="st0"
       d="M71.1,41.8H25.2c-0.1-0.4-0.2-0.8-0.2-1.3H6.2H6c-0.1-0.8-0.3-1.7-0.3-2.5l0.1,0h63.9   c0,0,1.2,1.5,0.3,1.8c-0.7,0.3-0.6,0.6-1,0.3c-0.5-0.3-0.3,0-0.6-0.2c-0.3-0.2-0.3,0.7,0.2,0.8c0.5,0.1,2.2-0.2,2.5,0.4   C71.1,41.8,71.1,41.8,71.1,41.8" /><path
       id="XMLID_242_"
       class="st0"
       d="M8,22.1c0.3-0.9,0.7-1.7,1.1-2.5l0.1,0h27.3v0c-0.5,0-1.4,0.4-1.8,0.8   c-0.4,0.3,1.5,0.3,1.8,0.4c0.3,0.2-2.6,1-3.5,0.3c-0.4-0.3-2-0.1-3.9,0.3c0,0,1,1,2.3,0.6c1.5-0.2,0.9,0.4,0.7,0.5   c-0.3,0.2-1.1,0.5-2,0.3c-1.2-0.3-1.5-1-3.7,0.5l0,0c0.2-0.4,0.3-0.8,0.5-1.2l0,0L8,22.1" /><path
       id="XMLID_241_"
       class="st0"
       d="M18.4,8.3c1.2-0.9,2.4-1.8,3.7-2.5l0.1,0h52.9l0,0c1.8,1.1,3.6,2.3,5.2,3.7l0,0H36l-0.1,0   c0.5-0.4,1-0.8,1.5-1.2L18.4,8.3" /><path
       id="XMLID_240_"
       class="st0"
       d="M58.1,1.1c5.6,0,10.8,1.4,15.4,3.7l-0.1,0H42.8l-0.2,0c0.9-0.5,1.8-0.9,2.7-1.2l-0.1,0H26.4   l-0.1,0c3.9-1.6,8.3-2.5,12.8-2.5l0.1,0h19.6" /><path
       id="XMLID_239_"
       class="st0"
       d="M61.2,30.9c-1.4-0.2-1-1-2.4-0.9c-0.7,0-1.4,0.4-1.9,0.5c-1.2-0.4-2.9,1-3.6,1.1   c-0.9-0.5-1.4-0.3-2.2,0.1c-0.8,0.1-0.8-0.5-1.5-0.6c-0.5,0-0.8,0-1.3-0.1c-0.5-0.1-0.9,0.3-1.4,0.2c-0.3-0.2,0.8-0.8,0.6-1   c-0.9-0.6-1.3,0.4-2.2,0.3c-0.2,0-1.1-0.3-1.4-0.4c-0.2-0.1-0.5-0.4-0.8-0.5c-0.3-0.2-0.3,0.1-0.6,0.1c-0.2,0-0.3,1.1-0.8,1.4   c-0.2-0.5-1.2-0.9-0.4-1.7c-0.3,0-0.3-0.5-0.5-0.5l-0.3-0.1H6.3H6.1c-0.2,0.8-0.3,1.7-0.4,2.5h0.1h18.8c0,0.4-0.1,0.7-0.1,1.1v0   h39.9l0.2,0c0.3,0-1-0.7-1.8-0.7L61.2,30.9" /><path
       id="XMLID_238_"
       class="st0"
       d="M65.9,31.7c0.1,0,0.3,0,0.4,0c0.7-0.2,1.2-0.2,1.7-0.1c0.8,0.1,0.5,0.3,1.3-0.5   c0.3-0.3-0.1-0.7-0.5-0.7c-0.3-0.1-0.6,0-0.9,0c-0.3,0-0.6,0.5-0.9,0.5c-0.3-0.2-0.1-0.5-0.3-0.8c-0.4-0.2-0.7-0.1-1.1-0.2   c-0.3-0.1-0.7-0.3-1.1-0.5c-0.2-0.1-0.6,0.2-0.8,0.1c-0.6-0.2-1.3,0-1.9,0c1.6,1.2,1.9,0.5,2.7,1.3c-0.1,0.1,0.9,0.2,0.8,0.3   L65.9,31.7" /><path
       id="XMLID_237_"
       class="st0"
       d="M28.5,24.2c0,0.4,0.4,0.3,0.7,0.3c0.3,0.2,0.5,0.1,1.4,0.2c0.3,0.1,0.2,0.4,0.1,0.3   c-1.3,0.1-0.7,0.5-0.7,0.6c0.2,0.7,1.3,0.5,1.7,0.9c0.6,0.6,1.7-0.3,2.4-0.3c0.7,0,1.7,0.4,2.4-0.4c0.2-0.2,1.6,1.2,3.2,0.5   c0.8-0.3,0.6,0.1-0.6,0.7c-0.2,0.1-0.6,0.3-0.8,0.4c-0.4,0.3-0.3,0.3-0.2,0.5H25.3h-0.2c0.1-0.4,0.2-0.8,0.3-1.2v0H6.7l-0.2,0   c0.2-0.8,0.4-1.7,0.7-2.5h0.1H28.5" /><path
       id="XMLID_236_"
       class="st0"
       d="M42.1,28c-0.3-0.6,0.2-1.2-0.2-1.3c-0.6-0.3-0.6,0.6-1.5,0.5l-0.3,0.1c0,0.2-0.2,0.5-0.1,0.6   l0,0.1H42.1" /><path
       id="XMLID_235_"
       class="st0"
       d="M52.6,15H12v0c-0.6,0.8-1.2,1.6-1.7,2.5l0.1,0h18.7l0.1,0c-0.3,0.4-0.5,0.8-0.7,1.3l0.1,0   h12.5l0.6-0.2c-0.3-0.2-0.4-0.6-0.3-0.7c0.1-0.1,0.5,0.1,1.2,0.1c0.7,0-0.3-0.8,0.8-0.8l0.6-0.6c0.3-0.2,0.6-0.2,0.9-0.4   c0.5-0.3,0.7,0.6,1.2,0.4c0.6-0.2,0.7-0.4,1.3-0.5c0.4,0,0.5,0.3,0.9,0.4c0.2,0,0.3-0.5,0.5-0.7c0.1-0.1,0.5,0.2,0.6,0.1   c0.7-0.3,0.7-0.2,1.3-0.1c0.3,0.1,0.6,0.5,0.6,0.5c0.5,0.2,1.4,0.1,1.3,0.1c0.7-0.2,0.9-1.1,0.5-1.2L52.6,15" /><path
       id="XMLID_234_"
       class="st0"
       d="M119,32.2c-2.2,0.7-2.8-0.1-3.6-0.1c-0.8,0-1.4,0.2-2.4,0.2c-0.4,0-1.5-0.6-1.9-0.6   c-0.7,0-1.4,0.6-2,0.5c-1.1-0.2-1,0.1-1.5,0c-0.3,0-0.8-0.6-1.4-0.5c-0.3,0-1.1,0.1-1.5,0.2c-0.2,0-0.7,2.4-1.1,1.8   c0,0-1-0.6-0.9-1.4c0.2-0.7-0.6-0.6-0.7-0.5c-0.1,0.1-0.8,1.2-2,1.2c-1.2-0.1-0.8,0.4-0.6,0.7c0.2,0.3-0.1,0.6-0.2,0.5   c-0.1-0.1-1.1-0.3-1.3-0.4c-0.2-0.2-1-0.5-1.8-0.3c-0.8,0.2-1.5,0.5-2,0.1c-0.5-0.4-0.7-0.8-0.7-0.8c-0.1-0.2,0.7-0.1,1-0.6   c0.3-0.5,1.8-0.9,1.8-0.9s1,0.6,1.6,0.8c0.6,0.2,2.8,0.4,1.3-0.4c-1.5-0.8-0.5-0.7,0.3-0.4c0.8,0.3,1.5-0.1,1.5-0.1   c0.7-0.2,0.6-1.1,0.9-1.4c0.2-0.2,0.8,0.3,0.7,0.7c1.8,0.2,2.4-0.1,3.6-1.8c1.1-0.7,1.4,0.7,2,1.1c0.9,0.5,1.7,0.3,2.3-0.6   c0.2-0.3-1.2-0.5-1.4-1.1c-0.1-0.5-0.2-0.7,0.3-0.9c0.3-0.1,1.3,0.2,0.9-0.6c-0.1-0.2-0.2-0.4-0.4-0.5c-1.1-0.9-3.3,0-4.5-1.3   c2.2-0.8,4.6-0.1,6.6-1c0.2-0.1,0-1.1,0.4-1c0.6,0.3,1.2,0.3,1.7,0.2c0.3-0.1,0.5-0.6,0.9-0.7c1.1-0.2,2.2,0.1,3.3-1.3   c-0.7-0.4-3.4,0.3-3.8,0c0.1-0.1,0.4-0.8,0.5-0.9c-2.1,0.3-3.1,0.1-5,0.3l-0.5-0.1c-0.5,0-0.5-0.4-1-0.4l-0.8,0.5c-1,0-1.2,0.4-2,0   c-0.7-0.3-0.7-0.5-1.5-0.7l-1.6-0.1c-0.6-0.1-1.2,0-1.4-0.8c-0.1-0.2,0.3-0.5,0.8-0.4c0-0.3,0-0.6,0-0.8c-0.8,0.5-1.5-0.9-2.6-0.1   c-0.1,0.1-0.5-0.3-0.4-0.7c-1.5,0-3.1,0.1-4.6,0c-0.3,0-0.5-0.4-0.4-0.8c-2.3,0.1-4.9,1.7-6.4,0.8c-0.4-0.2-0.6-0.1-1-0.3l-0.3,0   c-0.3-0.5-0.7-1-1.1-1.6h-8.4l1,0.9l1.3-0.2c-0.7,0.9-2.5,1.3-2.1,1.4c2.3,0.6,2.5,0,3.1,0.5c0.5,0.4,1-0.4,1.6-0.4   c0.6,0.1,1.7,0.4,2.3,0.4c0.6,0,1.1-0.9,1.6-0.6c1.5,0.9,3,0.7,4.5,0.6c0.6-0.1,1.3-0.8,2-0.7c0.3,0.1,0.7,0.2,0.6,0.6   c1.8-0.5,3.2,0.5,5.1,0c0.4,0.6,0.3,0.6,0.8,0.9c0.6,0.4,0.5-0.4,1.1-0.1c0.6-1,0.5,1.5,0.8,1.7c1.4,0.8,2.8-0.1,4.5,1.1   c1.1,0,2.5-0.2,3.7-0.2c0.4,0,1.3,0.2,1.7,0.2c1,0,1.8-0.3,2.7-0.2c0.6,0.1,0.5,0.5,1.1,0.7c-0.8,0.5-2,0.1-2.8,0.4   c-0.8,0.3-0.2,0.8-1,1.1c-0.3,0.1-3,0.1-3.3,0.3c-1,0.4-1.4,0.3-2.6,0.6c-0.5,0.2-0.6,0.8-0.1,1.3c0.3,0.3,0.6,0.5,0.9,0.6   c0.9,0.4,1.8,0.4,3,0.4c0.9-0.2-1.1,0.6,0.3,2.3c1.6,1-0.2,0.5-0.1,0.4c-0.3-0.2-1.2-1.3-1.2-1.4c-2-1.1-2.1,1.7-4.1,1.9   c-0.3,0-0.5-0.4-0.4-0.7c-0.6,0-1.2-0.2-1.6,0.1c-0.1,0.1-0.4,0.7-0.5,0.9c-0.3,0.7-1.3,0.5-1.8,0.4l-0.2-0.1   c-0.7-0.1-1.1-0.3-1.6,0.1c-1,0.7-0.4,0.1-1.3,0.3c-1.5,0.4-2.7,1.6-4.2,2c0,0,0.8,0.4,1.2,0.9c0.4,0.5,0.3,0.4,1.8,0.7   c1.5,0.3,2.1-0.2,2.1-0.2l0.9,0.4c-0.1,0,2.7,0.5,2.6,0.5c-0.3-0.1,0.1-0.5,0.4-0.7c-0.9-0.9,0.1-0.2,1.3-1.3   c0.9,1.7,1.4,2.5,3.5,1.1c0.6-0.4-0.7-1,0.3-1.3c1.8,0.2,3.5,0.7,5.3,0c1.8,0.7,3.8,0.4,5.4,0.5c-0.2,0.3-0.6,0.6-0.9,0.8   c-0.3,0.2,0.1,0.6,0.4,0.7c-2.5-0.3-4.1,0.8-5.1,0.6c-1.1-0.3-1.9-0.7-2.6-0.7c-0.6,0-1,0.4-1.7,0.5c-1.6,0.2-4.1,1-6.1,0.6   l-2.7-0.3c-2.1,0-3.3-0.2-4.9-0.9l-1.3-0.1c0,0-1.1-0.2-1.3-0.4c-0.2-0.2-0.4,0.2-0.5,0.3c0,0.1,0.1,0.4-0.4,0.5   c-0.5,0.1-0.3,0.3-0.3,0.5c0,0.3,0.6,0.9,0.6,1.3c0.1,0.4,0.2,0.4,0.2,0.4h1.7h0.1c0.1-0.8,0-1,0-1.8h0.2c0-0.1,1.3,0.6,1.4,0.5   c2.2,0.9,3.3,0.1,6.2,0.8c2.3,0.5,4-0.7,6.7-0.3c0.7,0.1,1.2-0.6,1.6-0.6c1.4,0.3,3.1,0.9,4.1,0.4c2.6-1.2,3.3,0.2,4.5-0.7   c0.7-0.5-0.2-2.1,2.2-2C118.7,33.4,119.5,32.1,119,32.2" /><path
       id="XMLID_233_"
       class="st0"
       d="M83.6,37c0.4-0.4-0.2-0.4,0.6-0.7l1.2-0.2c0.1-0.1,0.1-0.3,0-0.5c-0.1-0.2-0.4,0.1-0.9,0.1   c-0.4,0-0.4-0.4-0.3-0.7c0.1-0.3,0.1-0.3,0.3-0.4c0.2-0.2,0.7,0.1,1.2,0.1c0.5,0,0.9-0.5,0.9-0.6c0.1-0.1,0.1-0.1,0.2,0   c0.1,0.1,0.8,0.6,1,0.6c0.1,0.1,0.2,0.2,0.1,0.5c0,0.2,0.3,0.7,0.4,0.9c0.2,0.2,0.3,1,0.3,1h-5.2L83.6,37" /><path
       id="XMLID_232_"
       class="st0"
       d="M81.3,37.2H80c0,0-0.4-0.6-0.4-1.2c0-0.6,0.5-0.7,0.9-0.3c0.4,0.5,0.2,0.6,0.5,0.9   c0.3,0.3,0.7-0.1,0.6,0.3C81.5,37.1,81.3,37.2,81.3,37.2" /><path
       id="XMLID_231_"
       class="st0"
       d="M68.9,37.2H24.5c0-0.4-0.1-0.8-0.1-1.3H5.6H5.6c0-0.4,0-0.8,0-1.1c0-0.5,0-0.9,0-1.4h0.2h61.5   c0,0,0.3,0.6,0.2,0.9c-0.1,0.4-0.3,0.3,0.4,1.2C68.5,36.5,68.9,36.9,68.9,37.2" /><path
       id="XMLID_230_"
       class="st0"
       d="M81.7,35.6c0.9-0.4,1.7-0.2,1.5,0.3c-0.9,1.8-0.6,0.2-1.6,0.1L81.7,35.6" /><path
       id="XMLID_229_"
       class="st0"
       d="M74.1,33.4c0.3,0.2-0.4,1.4-0.7,1.5c-0.7,0.2-1.8-1.6-1.1-1.5H74.1" /><path
       id="XMLID_228_"
       class="st0"
       d="M70.9,33.4c0,0.1-0.3,1.1-0.2,1.2l-0.5,0.7c-0.1-0.2-0.4,0.8-0.5,0.6c-0.3-0.5-0.6-0.6-0.8-1   c-0.1-0.3-0.2-1.2-0.2-1.5H70.9" /><path
       id="XMLID_227_"
       class="st0"
       d="M72.7,38.9c-0.7,1-0.3,1.8-0.4,1.9c-0.3,0.1-0.6-0.4-0.8-0.7c-0.2-0.3-0.3-0.5-0.3-0.8   c-0.1-0.4-0.1-0.7,0.3-0.9C71.6,39,73,38.4,72.7,38.9" /><path
       id="XMLID_226_"
       class="st0"
       d="M70.2,14.1c0.1-0.4,0-0.8-0.2-0.8c-1.7,0.6-3.4,1.3-5,0.6c-0.5-0.2,0.5-1,0.6-1.5   c0.1-0.5-0.8-0.5-1.1-0.3c-1.8,1.4-3.7,2-4.7-0.1c-0.3,0.2-0.4,0.9-0.3,1.3c-1.4,0.1-2.8-0.4-4.2-0.3c-0.7,0-0.1,0.7,0.2,1.1h-24   h-0.1c0.3-0.4,0.7-0.8,1-1.2H13.8h-0.1c0.8-0.9,1.5-1.7,2.4-2.5h0h65.1l0,0c1.2,1.2,2.4,2.4,3.4,3.7H70.2" /><path
       id="XMLID_225_"
       class="st0"
       d="M89.7,38.1c0.3-0.3-1.6,1.3-2.1,1.2c-0.3-0.1-1.7-1-1.9-0.9c-2.5,0.7,0.1,0.5,0.4,0.8   c0.4,0.3,0.8,0.7,0.8,0.7c-0.4,0.3-1.3,0.6-2.4,0.5c-0.4,0-0.6-1.5-1.1-2l0.1-0.3L89.7,38.1L89.7,38.1" /><path
       id="XMLID_224_"
       class="st0"
       d="M90.8,38h0.7h0.1c-0.1,1.3-0.3,2.5-0.6,3.8h-0.1l-6.6,0c0.1,0.1,0.1-0.6,0.2-0.6   C86.5,41.6,89.4,39.6,90.8,38" /><path
       id="XMLID_223_"
       class="st0"
       d="M81.1,41.6c0.8,0.2,1-0.2,1.7-0.2c0.1,0,0.4-0.3,0.6-0.3l0.2-0.7c-0.3-0.2,0-0.7-0.9-0.6   L81.1,41.6" /><path
       id="XMLID_175_"
       class="st0"
       d="M80.7,41c-0.2,0.2-0.3,0.2-0.4,0.1c-0.5-1.1-0.1-2.1,1.1-1.9c1.2,0.2-0.8,1.1-0.3,1.3L80.7,41   " /><path
       id="XMLID_41_"
       class="st1"
       d="M71.5,46.1c0-0.3,0-0.5,0-0.7c-0.1-0.9,0.4-1.8,0-2.7v0H6.6H6.5c0.2,0.8,0.4,1.7,0.7,2.5h0.3   h18.7c0.1,0.4,0.3,0.8,0.4,1.2l0.1,0l44.8,0L71.5,46.1" /><path
       id="XMLID_40_"
       class="st0"
       d="M68.2,51.1c0.1-0.4,0.5-0.7,0.8-0.9c0.6-0.4,1.1-0.7,1.4-1.3c0.2-0.5,0-1,0-1.5l0-0.1H8.1H7.9   c0.4,0.8,0.7,1.7,1.1,2.5h0.2H28h0c0.2,0.4,0.4,0.8,0.6,1.2h0.1L68.2,51.1L68.2,51.1" /><path
       id="XMLID_39_"
       class="st0"
       d="M31.7,55.6c-0.3-0.4-0.6-0.8-0.9-1.2H11.9v0c-0.6-0.8-1.1-1.7-1.7-2.5h0.2h56L66.4,52   c-0.1,0.1-0.1,0.3-0.2,0.4c-0.5,0.9-1.6,1.4-1.9,2.5c-0.1,0.3-0.2,0.5-0.4,0.7H31.7" /><path
       id="XMLID_38_"
       class="st0"
       d="M62.2,60.2C62.2,60.2,62.2,60.2,62.2,60.2c0-0.1,0.1-0.2,0.1-0.3c0.1-0.8-0.1-1.7,0.1-2.5   c0-0.3,0.2-0.6,0.2-0.8l0.1,0h-49l-0.1,0c0.7,0.9,1.5,1.7,2.3,2.5H16h18.9l-0.1,0c0.4,0.4,0.9,0.8,1.4,1.2v0L62.2,60.2L62.2,60.2" /><path
       id="XMLID_37_"
       class="st0"
       d="M60.9,62.9c0.1-0.6,0.3-1.2,0.4-1.8v0h-43v0c1.1,0.9,2.4,1.8,3.6,2.5l0.1,0h18.8   c0.7,0.5,1.5,0.9,2.3,1.2l16.3,0C59.4,64.8,60.7,63.7,60.9,62.9" /><path
       id="XMLID_36_"
       class="st0"
       d="M58.2,68.3C58.1,68.3,58.1,68.3,58.2,68.3c0-0.2,0-0.5,0.1-0.6c0.6-0.5,0.8-1.2,1-1.9v-0.1   H26.1l-0.1,0c4,1.7,8.4,2.6,13.1,2.6l0.4,0h18.5L58.2,68.3C58.2,68.4,58,68.4,58.2,68.3L58.2,68.3" /><path
       id="XMLID_35_"
       class="st0"
       d="M77,46.4c0-1.1,1.2-1.7,1.9-2.5c0.2-0.2,0.3-0.4,0.4-0.6c0.1-0.2,0.1-0.5,0.2-0.7v0h11.4l0,0   c-0.3,1.3-0.7,2.5-1.1,3.7L77,46.4" /><path
       id="XMLID_34_"
       class="st0"
       d="M74.3,51c0.2-0.3,0.3-0.6,0.6-0.8c1.2-0.5,2.3-1.6,2.1-2.9v0h12.4c-0.5,1.3-1.1,2.5-1.8,3.7   H74.3" /><path
       id="XMLID_33_"
       class="st0"
       d="M70.3,55.7c0-0.3,0-0.6,0.1-0.9c0.2-0.3,0.5-0.4,0.8-0.6c0.3-0.2,0.1-0.6,0.3-0.9   c0.1-0.1,0.1-0.2,0.2-0.2c0.6-0.2,1.2-0.5,1.3-1.2v0H87c-0.8,1.3-1.6,2.6-2.6,3.7H70.3L70.3,55.7" /><path
       id="XMLID_32_"
       class="st0"
       d="M69.3,60.2c0-0.2,0.1-0.4,0.2-0.6c0.1-0.8-0.3-1.7,0.1-2.4c0.1-0.2,0.3-0.5,0.5-0.6v0l13.6,0   c-1.1,1.3-2.3,2.5-3.6,3.7l0,0.1H69.3" /><path
       id="XMLID_31_"
       class="st0"
       d="M67,64.8c0.2-0.4,0.1-0.8,0.2-1.2c0.1-0.2,0.2-0.4,0.3-0.7c0.3-0.6,1-0.8,1.4-1.3   c0.1-0.2,0.1-0.4,0.1-0.6v0H79c-1.8,1.4-3.8,2.7-5.8,3.7H73H67L67,64.8" /><path
       id="XMLID_30_"
       class="st0"
       d="M64.5,67.7C64.5,67.7,64.5,67.7,64.5,67.7c0-0.4,0.3-0.7,0.5-1c0.3-0.4,0.8-0.5,1-0.9h4.8   l0.1,0C68.9,66.7,66.7,67.3,64.5,67.7L64.5,67.7" /><path
       id="XMLID_29_"
       class="st0"
       d="M116.6,59.7c-2.2,2.6-5.1,4-8.4,4c-2.1,0-4.1-0.6-5.9-1.8c-2.8-1.9-4.4-5-4.4-8.7   c0-3,1.1-5.7,3.2-7.7c2-1.9,4.5-2.9,7.3-2.9c2.4,0,4.5,0.8,6.7,2.3V43h1.3v6.6H115v-2.9c-2-1.9-4.2-2.8-6.9-2.8   c-2.3,0-4.6,0.9-6.2,2.6c-1.8,1.8-2.7,4.1-2.7,6.7c0,2.5,0.9,4.7,2.6,6.4c1.7,1.7,3.9,2.7,6.5,2.7c2.8,0,5.3-1.1,7.4-3.5   L116.6,59.7" /><polyline
       id="XMLID_28_"
       class="st0"
       points="128.5,62.1 128.5,63.2 122.6,63.2 122.6,62.1 125,62.1 125,54 120.1,44.1 118.1,44.1    118.1,43 123.9,43 123.9,44.1 121.6,44.1 125.8,52.5 129.9,44.1 127.6,44.1 127.6,43 133.4,43 133.4,44.1 131.3,44.1 126.4,54    126.4,62.1 128.5,62.1  " /><path
       id="XMLID_25_"
       class="st0"
       d="M135.2,62.1h2v-18h-2V43h7.4c4.3,0,6.9,2.5,6.9,6.1c0,3.4-2.6,5.9-7,5.9h-3.9v7.1h2v1.1h-5.4   V62.1 M142.6,53.9c3.5,0,5.6-2,5.6-4.8c0-3-2.1-5-5.6-5h-4v9.8H142.6z" /><path
       id="XMLID_22_"
       class="st0"
       d="M150.4,62.1h2v-18h-2V43h7.6c4.1,0,6.5,2.2,6.5,5.3c0,2.3-1.2,3.9-3.6,4.7   c2.3,0.9,2.7,2.1,2.7,4.4v4.7h2v1.1h-3.3v-5.8c0-2.8-1.6-3.9-4.4-3.9h-4.1v8.6h2v1.1h-5.4V62.1 M158.6,52.4c2.9,0,4.6-1.7,4.6-4.1   c0-2.5-1.9-4.2-5.1-4.2h-4.2v8.3H158.6z" /><polyline
       id="XMLID_21_"
       class="st0"
       points="167.4,62.1 169.4,62.1 169.4,44.1 167.4,44.1 167.4,43 180.4,43 180.4,46.7    179.1,46.7 179.1,44.1 170.8,44.1 170.8,52.1 175.9,52.1 175.9,50.2 177.1,50.2 177.1,55.4 175.9,55.4 175.9,53.3 170.8,53.3    170.8,62.1 179.3,62.1 179.3,58.4 180.6,58.4 180.6,63.2 167.4,63.2 167.4,62.1  " /><path
       id="XMLID_20_"
       class="st0"
       d="M183,57.2h1.3v2.4c1.7,1.9,3.4,2.8,5.4,2.8c2.8,0,4.9-2,4.9-4.6c0-2.1-1.1-3.5-3.3-4.1l-3.8-1   c-2.8-0.7-4.2-2.3-4.2-4.8c0-3.2,2.3-5.4,5.7-5.4c1.8,0,3.4,0.7,4.9,2.2V43h1.2v5.3H194v-1.9c-1.4-1.8-2.9-2.7-4.8-2.7   c-2.7,0-4.4,1.7-4.4,4.1c0,1.9,1,3,3.1,3.5l4,1.1c2.6,0.7,4.2,2.6,4.2,5.1c0,3.7-2.6,6.1-6.4,6.1c-1.9,0-3.7-0.7-5.4-2.2v1.7H183   V57.2" /><path
       id="XMLID_19_"
       class="st0"
       d="M198.1,57.2h1.3v2.4c1.7,1.9,3.4,2.8,5.4,2.8c2.8,0,4.9-2,4.9-4.6c0-2.1-1.1-3.5-3.3-4.1   l-3.8-1c-2.8-0.7-4.2-2.3-4.2-4.8c0-3.2,2.3-5.4,5.7-5.4c1.8,0,3.4,0.7,4.9,2.2V43h1.2v5.3h-1.2v-1.9c-1.4-1.8-2.9-2.7-4.8-2.7   c-2.7,0-4.4,1.7-4.4,4.1c0,1.9,1,3,3.1,3.5l4,1.1c2.6,0.7,4.2,2.6,4.2,5.1c0,3.7-2.6,6.1-6.4,6.1c-1.9,0-3.7-0.7-5.4-2.2v1.7h-1.3   V57.2" /><g
       id="XMLID_17_"><rect
         id="XMLID_18_"
         x="97.9"
         y="68.3"
         class="st2"
         width="113.2"
         height="1.4" /></g><g
       id="XMLID_245_"><path
         id="XMLID_246_"
         class="st2"
         d="M100.8,74.8h4.5l-0.1,0.8h-3.5l-0.5,2.8h3l-0.1,0.8h-3l-0.5,3.1h3.8l-0.1,0.8h-4.7    L100.8,74.8z" /><path
         id="XMLID_248_"
         class="st2"
         d="M106.1,77h0.8l-0.2,1.1c0.2-0.5,0.3-0.6,0.6-0.9c0.3-0.3,0.7-0.4,1.2-0.4    c0.8,0,1.2,0.4,1.3,1.3c0.2-0.4,0.3-0.6,0.6-0.8c0.3-0.3,0.7-0.4,1.2-0.4c1,0,1.5,0.6,1.5,1.6c0,0.3,0,0.6-0.1,1.1l-0.6,3.6h-0.9    l0.6-3.5c0.1-0.5,0.1-0.8,0.1-1.2c0-0.6-0.3-1-0.8-1c-0.4,0-0.8,0.3-1,0.6c-0.4,0.5-0.5,1-0.7,2.2l-0.5,2.8h-0.9l0.5-3.1    c0.1-0.9,0.2-1.3,0.2-1.5c0-0.6-0.3-1-0.7-1c-0.8,0-1.5,1.1-1.7,2.8l-0.5,2.9h-0.9L106.1,77z" /><path
         id="XMLID_251_"
         class="st2"
         d="M115.2,74.8h0.9l-0.5,3c0.4-0.7,1.1-1,1.6-1c0.9,0,1.8,0.5,1.8,2.3c0,3-1.7,4.2-2.7,4.2    c-0.8,0-1.3-0.4-1.6-1.2c-0.3,0.5-0.3,0.6-0.5,1h-0.4L115.2,74.8z M116.3,82.6c1,0,1.7-1.4,1.7-3.7c0-0.5-0.3-1.3-0.9-1.3    c-1,0-1.9,1.4-1.9,3.3C115.2,81.9,115.6,82.6,116.3,82.6z" /><path
         id="XMLID_254_"
         class="st2"
         d="M121,80.2c0,0.3,0,0.4,0,0.6c0,1.2,0.5,1.8,1.3,1.8c0.6,0,1-0.4,1.4-1.3l0.7,0.4    c-0.5,1.1-1.2,1.6-2.2,1.6c-1.4,0-2.2-0.9-2.2-2.6c0-2.3,1.1-3.9,2.8-3.9c1.3,0,2,0.9,2,2.6c0,0.3,0,0.4-0.1,0.8H121z M123.7,79.4    c0-0.2,0-0.3,0-0.3c0-1-0.4-1.6-1.1-1.6c-0.5,0-1,0.3-1.2,0.8c-0.2,0.4-0.3,0.5-0.4,1.1H123.7z" /><path
         id="XMLID_257_"
         class="st2"
         d="M129.7,83.2h-0.8l0.1-0.8c-0.4,0.7-1,1-1.7,1c-1.2,0-1.8-0.8-1.8-2.4c0-2.5,1.1-4.2,2.8-4.2    c0.7,0,1.1,0.3,1.4,0.9l0.5-2.9h0.9L129.7,83.2z M128.3,77.5c-1.2,0-1.8,2-1.8,3.3c0,1.1,0.4,1.7,1.1,1.7c0.5,0,0.9-0.3,1.2-0.9    c0.4-0.8,0.7-1.7,0.7-2.6C129.4,78.1,129,77.5,128.3,77.5z" /><path
         id="XMLID_260_"
         class="st2"
         d="M135.6,83.2h-0.8l0.1-0.8c-0.4,0.7-1,1-1.7,1c-1.2,0-1.8-0.8-1.8-2.4c0-2.5,1.1-4.2,2.8-4.2    c0.7,0,1.1,0.3,1.4,0.9l0.5-2.9h0.9L135.6,83.2z M134.3,77.5c-1.2,0-1.8,2-1.8,3.3c0,1.1,0.4,1.7,1.1,1.7c0.5,0,0.9-0.3,1.2-0.9    c0.4-0.8,0.7-1.7,0.7-2.6C135.4,78.1,135,77.5,134.3,77.5z" /><path
         id="XMLID_312_"
         class="st2"
         d="M138.4,80.2c0,0.3,0,0.4,0,0.6c0,1.2,0.5,1.8,1.3,1.8c0.6,0,1-0.4,1.4-1.3l0.7,0.4    c-0.5,1.1-1.2,1.6-2.2,1.6c-1.4,0-2.2-0.9-2.2-2.6c0-2.3,1.1-3.9,2.8-3.9c1.3,0,2,0.9,2,2.6c0,0.3,0,0.4-0.1,0.8H138.4z     M141.2,79.4c0-0.2,0-0.3,0-0.3c0-1-0.4-1.6-1.1-1.6c-0.5,0-1,0.3-1.2,0.8c-0.2,0.4-0.3,0.5-0.4,1.1H141.2z" /><path
         id="XMLID_315_"
         class="st2"
         d="M147.2,83.2h-0.8l0.1-0.8c-0.4,0.7-1,1-1.7,1c-1.2,0-1.8-0.8-1.8-2.4c0-2.5,1.1-4.2,2.8-4.2    c0.7,0,1.1,0.3,1.4,0.9l0.5-2.9h0.9L147.2,83.2z M145.8,77.5c-1.2,0-1.8,2-1.8,3.3c0,1.1,0.4,1.7,1.1,1.7c0.5,0,0.9-0.3,1.2-0.9    c0.4-0.8,0.7-1.7,0.7-2.6C146.9,78.1,146.5,77.5,145.8,77.5z" /><path
         id="XMLID_318_"
         class="st2"
         d="M152.8,77h0.9l-1,6.2h-0.9L152.8,77z M153.2,74.8h1l-0.2,1.1h-1L153.2,74.8z" /><path
         id="XMLID_321_"
         class="st2"
         d="M155.4,77h0.8l-0.2,1.2c0.2-0.5,0.3-0.7,0.6-0.9c0.3-0.3,0.7-0.4,1.2-0.4    c0.9,0,1.5,0.6,1.5,1.5c0,0.4,0,0.7-0.2,1.4l-0.6,3.5h-0.9l0.6-3.4c0.1-0.7,0.2-1,0.2-1.2c0-0.6-0.3-1-0.8-1c-0.4,0-0.9,0.4-1.2,1    c-0.3,0.6-0.5,1.4-0.7,2.5l-0.4,2.1h-0.9L155.4,77z" /><path
         id="XMLID_324_"
         class="st2"
         d="M164.8,75.6h-2l0.1-0.8h5l-0.1,0.8h-2l-1.3,7.6h-1L164.8,75.6z" /><path
         id="XMLID_326_"
         class="st2"
         d="M168.4,83.3c-1.5,0-2.1-0.8-2.1-2.5c0-2.7,1.3-4,2.7-4c1.5,0,2.1,0.8,2.1,2.5    C171.2,81.8,169.9,83.3,168.4,83.3z M169.1,77.5c-1.3,0-1.8,2.1-1.8,3.3c0,1.4,0.5,1.8,1.2,1.8c1.3,0,1.7-2.2,1.7-3.4    C170.2,78,169.8,77.5,169.1,77.5z" /><path
         id="XMLID_329_"
         class="st2"
         d="M173,77h0.8l-0.2,1.1c0.2-0.5,0.3-0.6,0.6-0.9c0.3-0.3,0.7-0.4,1.2-0.4    c0.8,0,1.2,0.4,1.3,1.3c0.2-0.4,0.3-0.6,0.6-0.8c0.3-0.3,0.7-0.4,1.2-0.4c1,0,1.5,0.6,1.5,1.6c0,0.3,0,0.6-0.1,1.1l-0.6,3.6h-0.9    l0.6-3.5c0.1-0.5,0.1-0.8,0.1-1.2c0-0.6-0.3-1-0.8-1c-0.4,0-0.8,0.3-1,0.6c-0.4,0.5-0.5,1-0.7,2.2l-0.5,2.8h-0.9l0.5-3.1    c0.1-0.9,0.2-1.3,0.2-1.5c0-0.6-0.3-1-0.7-1c-0.8,0-1.5,1.1-1.7,2.8l-0.5,2.9H172L173,77z" /><path
         id="XMLID_331_"
         class="st2"
         d="M182.9,83.3c-1.5,0-2.1-0.8-2.1-2.5c0-2.7,1.3-4,2.7-4c1.5,0,2.1,0.8,2.1,2.5    C185.7,81.8,184.4,83.3,182.9,83.3z M183.6,77.5c-1.3,0-1.8,2.1-1.8,3.3c0,1.4,0.5,1.8,1.2,1.8c1.3,0,1.7-2.2,1.7-3.4    C184.7,78,184.3,77.5,183.6,77.5z" /><path
         id="XMLID_334_"
         class="st2"
         d="M187.5,77h0.8l-0.2,1.4c0.2-0.4,0.4-0.6,0.6-0.9c0.4-0.5,0.9-0.7,1.3-0.7c0.1,0,0.2,0,0.3,0    l-0.2,1c-0.1,0-0.2,0-0.3,0c-0.5,0-1,0.3-1.3,0.7c-0.4,0.7-0.7,2.2-0.9,3.2l-0.2,1.4h-0.9L187.5,77z" /><path
         id="XMLID_336_"
         class="st2"
         d="M191.2,77h0.8l-0.2,1.4c0.2-0.4,0.4-0.6,0.6-0.9c0.4-0.5,0.9-0.7,1.3-0.7c0.1,0,0.2,0,0.3,0    l-0.2,1c-0.1,0-0.2,0-0.3,0c-0.5,0-1,0.3-1.3,0.7c-0.4,0.7-0.7,2.2-0.9,3.2l-0.2,1.4h-0.9L191.2,77z" /><path
         id="XMLID_490_"
         class="st2"
         d="M195.8,83.3c-1.5,0-2.1-0.8-2.1-2.5c0-2.7,1.3-4,2.7-4c1.5,0,2.1,0.8,2.1,2.5    C198.6,81.8,197.3,83.3,195.8,83.3z M196.5,77.5c-1.3,0-1.8,2.1-1.8,3.3c0,1.4,0.5,1.8,1.2,1.8c1.3,0,1.7-2.2,1.7-3.4    C197.6,78,197.2,77.5,196.5,77.5z" /><path
         id="XMLID_493_"
         class="st2"
         d="M199.2,77h0.9l0.3,4.7l1.7-4.7h0.9l0.4,4.7l1.7-4.7h0.9l-2.5,6.2h-0.8l-0.4-4.8l-1.7,4.8    h-0.8L199.2,77z" /><path
         id="XMLID_495_"
         class="st2"
         d="M208,74.7v0.3h-0.5v1.7h-0.3v-1.7h-0.5v-0.3H208z M208.7,74.7l0.3,1.3l0.4-1.3h0.5v2h-0.3    v-1.7l-0.5,1.7h-0.3l-0.4-1.7v1.7h-0.3v-2H208.7z" /></g><g
       id="XMLID_2_"><path
         id="XMLID_3_"
         class="st0"
         d="M213.6,42.6c0.9,0,1.6,0.7,1.6,1.6c0,0.9-0.7,1.6-1.6,1.6c-0.9,0-1.6-0.7-1.6-1.6    C211.9,43.3,212.7,42.6,213.6,42.6z M213.6,45.5c0.7,0,1.3-0.6,1.3-1.3c0-0.7-0.6-1.3-1.3-1.3c-0.7,0-1.3,0.6-1.3,1.3    C212.3,44.9,212.9,45.5,213.6,45.5z M213.3,45h-0.4v-1.7h0.8c0.1,0,0.7,0,0.7,0.5c0,0.3-0.2,0.4-0.3,0.5l0.3,0.8h-0.5l-0.3-0.7    h-0.3V45z M213.3,44.1h0.3c0.1,0,0.3,0,0.3-0.2c0-0.1-0.1-0.2-0.3-0.2h-0.3V44.1z" /></g></g></svg>