<?xml version="1.0" encoding="UTF-8" standalone="no"?>
<!-- Created with Inkscape (http://www.inkscape.org/) -->

<svg
   xmlns:dc="http://purl.org/dc/elements/1.1/"
   xmlns:cc="http://creativecommons.org/ns#"
   xmlns:rdf="http://www.w3.org/1999/02/22-rdf-syntax-ns#"
   xmlns:svg="http://www.w3.org/2000/svg"
   xmlns="http://www.w3.org/2000/svg"
   xmlns:sodipodi="http://sodipodi.sourceforge.net/DTD/sodipodi-0.dtd"
   xmlns:inkscape="http://www.inkscape.org/namespaces/inkscape"
   width="257.77161mm"
   height="378.69379mm"
   viewBox="0 0 913.36395 1341.8284"
   id="svg21447"
   version="1.1"
   inkscape:version="0.91 r13725"
   sodipodi:docname="x.svg">
  <defs
     id="defs21449" />
  <sodipodi:namedview
     id="base"
     pagecolor="#ffffff"
     bordercolor="#666666"
     borderopacity="1.0"
     inkscape:pageopacity="0.0"
     inkscape:pageshadow="2"
     inkscape:zoom="0.35"
     inkscape:cx="-441.56921"
     inkscape:cy="862.54147"
     inkscape:document-units="px"
     inkscape:current-layer="layer1"
     showgrid="true"
     inkscape:snap-intersection-paths="true"
     inkscape:object-nodes="true"
     inkscape:snap-smooth-nodes="true"
     inkscape:window-width="1547"
     inkscape:window-height="876"
     inkscape:window-x="53"
     inkscape:window-y="24"
     inkscape:window-maximized="1"
     fit-margin-top="5"
     fit-margin-left="5"
     fit-margin-bottom="5"
     fit-margin-right="5">
    <inkscape:grid
       type="xygrid"
       id="grid21995"
       originx="-1497.2835"
       originy="142.7165" />
  </sodipodi:namedview>
  <metadata
     id="metadata21452">
    <rdf:RDF>
      <cc:Work
         rdf:about="">
        <dc:format>image/svg+xml</dc:format>
        <dc:type
           rdf:resource="http://purl.org/dc/dcmitype/StillImage" />
        <dc:title />
      </cc:Work>
    </rdf:RDF>
  </metadata>
  <g
     inkscape:label="Calque 1"
     inkscape:groupmode="layer"
     id="layer1"
     transform="translate(-1497.2835,146.74963)">
    <path
       style="fill:none;fill-opacity:1;stroke:#000000;stroke-width:10;stroke-miterlimit:4;stroke-dasharray:none;stroke-opacity:1"
       d="m 1520,372.36221 c 240,0 480,0 720,0 0,80 0,159.99999 0,239.99999 -240,0 -480,0 -720,0 0,-80 0,-159.99999 0,-239.99999 z"
       id="rect22106"
       inkscape:connector-curvature="0" />
    <path
       style="fill:none;fill-opacity:1;stroke:#000000;stroke-width:10;stroke-miterlimit:4;stroke-dasharray:none;stroke-opacity:1"
       d="m 1520,692.36218 c 240,0 480,0 720,0 0,160.00001 0,320.00002 0,480.00002 -240,0 -480,0 -720,0 0,-160 0,-320.00001 0,-480.00002 z"
       id="rect22106-3"
       inkscape:connector-curvature="0" />
    <path
       style="fill:none;fill-rule:evenodd;stroke:#000000;stroke-width:10;stroke-linecap:butt;stroke-linejoin:miter;stroke-miterlimit:4;stroke-dasharray:none;stroke-opacity:1"
       d="m 1960,692.3622 c 0,-26.66667 0,-53.33333 0,-80"
       id="path22123"
       inkscape:connector-curvature="0" />
    <path
       style="fill:none;fill-rule:evenodd;stroke:#000000;stroke-width:10;stroke-linecap:butt;stroke-linejoin:miter;stroke-miterlimit:4;stroke-dasharray:none;stroke-opacity:1"
       d="m 1780,692.3622 c 0,-26.66667 0,-53.33333 0,-80"
       id="path22123-6"
       inkscape:connector-curvature="0" />
    <path
       style="fill:none;fill-rule:evenodd;stroke:#000000;stroke-width:10;stroke-linecap:butt;stroke-linejoin:miter;stroke-miterlimit:4;stroke-dasharray:none;stroke-opacity:1"
       d="m 1560,292.3622 c 26.6667,26.66667 53.3333,53.33333 80,80 26.6667,-26.66667 53.3333,-53.33333 80,-80"
       id="path22140"
       inkscape:connector-curvature="0" />
    <path
       style="fill:none;fill-rule:evenodd;stroke:#000000;stroke-width:10;stroke-linecap:butt;stroke-linejoin:miter;stroke-miterlimit:4;stroke-dasharray:none;stroke-opacity:1"
       d="m 1560,92.362205 c 26.6667,-26.666667 53.3333,-53.333333 80,-80 26.6667,26.666667 53.3333,53.333333 80,80"
       id="path22140-7"
       inkscape:connector-curvature="0" />
    <path
       style="fill:none;fill-rule:evenodd;stroke:#000000;stroke-width:10;stroke-linecap:butt;stroke-linejoin:miter;stroke-miterlimit:4;stroke-dasharray:none;stroke-opacity:1"
       d="m 1600,332.3622 c 0,-93.33333 0,-186.66666 0,-279.999995"
       id="path22157"
       inkscape:connector-curvature="0" />
    <path
       style="fill:none;fill-rule:evenodd;stroke:#000000;stroke-width:10;stroke-linecap:butt;stroke-linejoin:miter;stroke-miterlimit:4;stroke-dasharray:none;stroke-opacity:1"
       d="m 1680,332.36221 c 0,-93.33334 0,-186.66667 0,-280.000005"
       id="path22157-5"
       inkscape:connector-curvature="0" />
    <path
       style="font-style:normal;font-weight:normal;font-size:80px;line-height:125%;font-family:sans-serif;letter-spacing:0px;word-spacing:0px;fill:#000000;fill-opacity:1;stroke:none;stroke-width:1px;stroke-linecap:butt;stroke-linejoin:miter;stroke-opacity:1"
       d="m 1601.0258,-90.065464 c -15.2514,38.190715 44.0872,14.873925 9.9218,0 -3.3073,0 -6.6146,0 -9.9218,0 z m -7.8907,-6.484375 c 42.4969,-10.794861 45.0605,39.257205 7.8907,38.017875 3.483,33.236253 -14.1505,15.571466 -7.8907,-7.913125 0,-10.034916 0,-20.069833 0,-30.10475 z m 91.9532,4.492187 c -0.6931,9.72026 -54.9684,-6.416031 -37.3829,34.902344 7.6702,25.920369 66.1601,-0.497343 18.8282,20.058594 -51.1783,-1.800078 -26.7084,-85.166536 18.5547,-54.960938 z"
       id="text22174"
       inkscape:connector-curvature="0" />
    <path
       style="font-style:normal;font-weight:normal;font-size:70px;line-height:125%;font-family:sans-serif;letter-spacing:0px;word-spacing:0px;fill:#000000;fill-opacity:1;stroke:none;stroke-width:1px;stroke-linecap:butt;stroke-linejoin:miter;stroke-opacity:1"
       d="m 1631.348,474.68085 c -11.414,45.99476 48.2494,-1.21749 0,0 z m -6.9043,-5.67383 c 38.2303,-9.73123 38.7287,34.73292 6.9043,33.65752 0.6161,34.65224 -12.0657,4.72776 -6.9043,-13.97787 0,-6.55989 0,-13.11977 0,-19.67965 z m 62.9248,18.62793 c -24.0089,-13.63765 -12.8497,55.42111 -22.4218,22.99716 -2.0976,-27.99692 0.5708,-30.67693 22.3877,-29.45712 0.011,2.15332 0.023,4.30664 0.034,6.45996 z m 19.9951,-1.46973 c -43.9534,35.49472 42.4308,38.68156 0,0 z m 0,-5.33203 c 52.8408,15.48533 -26.4727,70.90267 -16.4062,11.68945 1.8398,-7.13864 9.0972,-12.18783 16.4062,-11.68945 z m 53.1495,19.61914 c -27.1579,-56.19613 -26.2181,54.77389 0,0 z m 6.289,14.83399 c 0.8313,33.38063 -55.8155,10.62683 -9.3652,10.86914 15.7046,-20.99247 -39.7556,5.01679 -23.772,-33.70972 19.3189,-19.79586 40.9156,-14.59934 33.1372,17.52586 l 0,3.13507 0,2.17965 z m 35.1367,-27.65137 c -24.0089,-13.63765 -12.8497,55.42111 -22.4218,22.99716 -2.0976,-27.99692 0.5708,-30.67693 22.3877,-29.45712 0.011,2.15332 0.023,4.30664 0.034,6.45996 z m 24.0625,13.15918 c -46.1575,15.04421 28.4021,19.07838 0,0 z m 12.544,-2.59766 c 11.315,28.91585 -31.8635,31.21055 -31.2573,5.03296 35.1062,-9.80529 20.0418,-12.34331 1.726,-19.73022 12.04,-5.9014 31.5997,-2.64026 29.5313,14.69726 z m 42.793,-9.09179 c 28.0191,-39.18673 31.9502,48.73012 19.5166,24.66249 7.916,-35.67303 -27.7856,-28.77228 -18.4571,3.44476 -9.929,11.5346 -5.532,-59.14924 -24.7802,-18.81038 2.7437,33.01731 -11.4805,18.14411 -6.3233,-6.57982 -5.0939,-14.31314 22.4965,-11.98559 30.044,-2.71705 z m 68.2226,0 c 28.0191,-39.18673 31.9503,48.73012 19.5166,24.66249 7.916,-35.67303 -27.7855,-28.77228 -18.457,3.44476 -9.929,11.5346 -5.532,-59.14924 -24.7803,-18.81038 2.7437,33.01731 -11.4804,18.14411 -6.3232,-6.57982 -5.0939,-14.31314 22.4965,-11.98559 30.0439,-2.71705 z m 55.8154,11.68945 c -46.1575,15.04421 28.4021,19.07838 0,0 z m 12.544,-2.59766 c 11.315,28.91585 -31.8635,31.21055 -31.2573,5.03296 35.1062,-9.80529 20.0418,-12.34331 1.726,-19.73022 12.04,-5.9014 31.5997,-2.64026 29.5313,14.69726 z m 19.209,-27.30957 c 0.1941,18.27748 23.5067,9.29456 0,18.8919 -6.2261,21.8873 29.3922,38.97587 -5.6311,23.71308 1.879,-22.23831 -9.6395,-30.7037 2.4429,-42.60498 l 3.1351,0 0.053,0 z m 54.0039,28.4375 c -15.1027,0.13505 -47.5277,10.9145 -8.2373,15.4834 22.9317,10.1346 -54.5438,4.35848 -22.1826,-28.4375 10.7084,-11.8457 32.4505,-3.82301 30.4199,12.9541 z m -6.2891,-1.8457 c -7.2554,-29.56147 -44.808,8.48955 0,0 z m 15.9619,7.45117 c -4.6242,-27.19897 11.076,-28.02798 6.2891,-0.23926 18.6832,41.49498 18.94,-41.33653 25.7715,-16.66444 1.892,28.9006 0.583,36.29929 -24.43,31.97694 -5.9506,-2.27735 -7.7992,-9.41075 -7.6306,-15.07324 z m 67.2657,-17.29492 c -24.009,-13.63765 -12.8498,55.42111 -22.4219,22.99716 -2.0976,-27.99692 0.5709,-30.67693 22.3877,-29.45712 0.011,2.15332 0.023,4.30664 0.034,6.45996 z"
       id="text22174-3"
       inkscape:connector-curvature="0" />
    <path
       style="font-style:normal;font-weight:normal;font-size:80px;line-height:125%;font-family:sans-serif;letter-spacing:0px;word-spacing:0px;fill:#000000;fill-opacity:1;stroke:none;stroke-width:1px;stroke-linecap:butt;stroke-linejoin:miter;stroke-opacity:1"
       d="m 1840.472,-128.90256 c 14.6983,4.1184 2.1096,35.523832 6.2891,50.161002 -12.8558,8.479502 -3.4307,-32.295322 -6.2891,-44.003342 l 0,-3.13506 0,-3.0226 z m 34.2481,19.31153 c -43.9535,35.494712 42.4308,38.681553 0,0 z m 0,-5.33204 c 52.8408,15.48533 -26.4728,70.90267 -16.4063,11.68946 1.8399,-7.13865 9.0972,-12.18784 16.4063,-11.68946 z m 53.1494,19.619145 c -27.1578,-56.196125 -26.218,54.773891 0,0 z m 6.2891,14.833985 c 0.8312,33.380634 -55.8155,10.626837 -9.3653,10.86914 15.7046,-20.992466 -39.7555,5.016796 -23.7719,-33.70972 19.3189,-19.79585 40.9155,-14.59933 33.1372,17.525868 l 0,3.135063 0,2.179649 z m 12.9541,-33.53027 c 10.7462,-1.08461 10.363,39.320261 0,38.281246 0,-12.760416 0,-25.520836 0,-38.281246 z m 0,-14.90235 c 18.4233,-3.32284 -3.931,21.70209 0,0 z m 46.9629,16.37207 c -12.1661,-4.98397 -41.9376,31.902723 -5.3662,31.752933 14.8054,17.352962 -55.5283,-11.128592 -13.6805,-32.803953 6.204,-2.17243 13.1251,-1.62446 19.0467,1.05102 z m 11.0058,-1.46972 c 10.7462,-1.08461 10.3631,39.320261 0,38.281246 0,-12.760416 0,-25.520836 0,-38.281246 z m 0,-14.90235 c 18.4234,-3.32284 -3.9309,21.70209 0,0 z m 52.1582,32.470706 c -15.1026,0.135048 -47.5277,10.9145 -8.2373,15.483398 22.9318,10.134601 -54.5438,4.358483 -22.1826,-28.437504 10.7085,-11.8457 32.4505,-3.823 30.4199,12.954106 z m -6.289,-1.845703 c -7.2554,-29.561463 -44.8081,8.489551 0,0 z m 16.6113,-30.625003 c 14.6983,4.1184 2.1095,35.523832 6.2891,50.161002 -12.8559,8.479502 -3.4307,-32.295322 -6.2891,-44.003342 l 0,-3.13506 0,-3.0226 z m 66.8896,20.71289 c -2.6266,-33.10399 11.4935,-15.92634 6.2891,7.50267 10.6619,32.524344 -27.9891,34.659638 -34.2139,5.861591 -2.6067,-15.552751 18.0672,-28.828161 27.9248,-13.364261 z m -21.4306,13.364261 c 27.144,57.783674 26.0907,-56.401221 0,0 z m 73.4179,-1.606445 c -15.1026,0.135048 -47.5277,10.9145 -8.2373,15.483398 22.9318,10.134601 -54.5437,4.358483 -22.1826,-28.437504 10.7085,-11.8457 32.4505,-3.823 30.4199,12.954106 z m -6.289,-1.845703 c -7.2554,-29.561463 -44.8081,8.489551 0,0 z m -314.4873,77.58789 c -2.6267,-33.103991 11.4934,-15.926343 6.289,7.502672 10.662,32.524339 -27.9891,34.659633 -34.2138,5.8615861 -2.6068,-15.5527481 18.0671,-28.8281611 27.9248,-13.3642581 z m -21.4307,13.3642581 c 27.1441,57.7836739 26.0908,-56.4012171 0,0 z m 73.418,-1.6064453 c -15.1027,0.1350482 -47.5277,10.9144997 -8.2373,15.4833984 22.9317,10.1346008 -54.5438,4.3584828 -22.1826,-28.4375002 10.7084,-11.845701 32.4505,-3.823007 30.4199,12.9541018 z m -6.2891,-1.8457028 c -7.2554,-29.561466 -44.808,8.489551 0,0 z m -6.0498,-33.427735 c 17.2112,1.773206 -24.9963,25.044236 0,0 z m 18.1494,17.705078 c 16.552,-2.742711 14.7558,52.549521 24.0977,17.4388496 11.4972,-32.9300516 14.2331,-6.9622936 2.1502,11.9156553 -10.6114,26.4112691 -20.6307,-15.1171869 -25.1019,-26.2986599 l -1.1008,-2.935451 -0.045,-0.120394 z m 78.6817,17.5683598 c -15.1027,0.1350482 -47.5277,10.9144997 -8.2373,15.4833984 22.9317,10.1346008 -54.5438,4.3584828 -22.1827,-28.4375002 10.7085,-11.845701 32.4506,-3.823007 30.42,12.9541018 z m -6.2891,-1.8457028 c -7.2554,-29.561466 -44.8081,8.489551 0,0 z m 16.6113,-30.625 c 14.6983,4.118397 2.1096,35.5238291 6.2891,50.160999 -12.8558,8.479502 -3.4307,-32.29532 -6.2891,-44.003342 l 0,-3.135063 0,-3.022594 z m 34.2481,19.311523 c -43.9535,35.494716 42.4308,38.681557 0,0 z m 0,-5.332031 c 52.8408,15.485325 -26.4728,70.902665 -16.4063,11.689453 1.8399,-7.138644 9.0972,-12.187836 16.4063,-11.689453 z m 34.0429,33.4619139 c 2.5978,33.1395871 -11.5752,14.9548721 -6.3232,-7.9128278 -10.5933,-32.4911891 28.1773,-33.9124541 34.2481,-5.45143 2.6095,15.4985683 -18.1514,28.8889869 -27.9249,13.3642578 z m 21.3965,-13.3642578 c -27.1458,-57.7041761 -26.0469,56.3939059 0,0 z m 23.0371,13.3642578 c 2.5978,33.1395871 -11.5752,14.9548721 -6.3232,-7.9128278 -10.5933,-32.4911891 28.1773,-33.9124541 34.248,-5.45143 2.6096,15.4985683 -18.1513,28.8889869 -27.9248,13.3642578 z m 21.3965,-13.3642578 c -27.1459,-57.7041761 -26.0469,56.3939059 0,0 z m 49.6973,-1.6064453 c -15.1027,0.1350482 -47.5277,10.9144997 -8.2373,15.4833984 22.9317,10.1346008 -54.5438,4.3584828 -22.1826,-28.4375002 10.7084,-11.845701 32.4505,-3.823007 30.4199,12.9541018 z m -6.2891,-1.8457028 c -7.2553,-29.561466 -44.808,8.489551 0,0 z m 46.416,-8.374024 c 28.0192,-39.186721 31.9503,48.730121 19.5166,24.6624925 7.9161,-35.6730265 -27.7855,-28.7722745 -18.457,3.4447574 -9.929,11.5346011 -5.532,-59.1492329 -24.7803,-18.8103747 2.7437,33.0173128 -11.4804,18.1441057 -6.3232,-6.5798202 -5.0939,-14.313137 22.4965,-11.98559 30.0439,-2.717055 z m 71.1622,10.2197268 c -15.1027,0.1350482 -47.5277,10.9144997 -8.2373,15.4833984 22.9317,10.1346008 -54.5438,4.3584828 -22.1827,-28.4375002 10.7085,-11.845701 32.4505,-3.823007 30.42,12.9541018 z m -6.2891,-1.8457028 c -7.2554,-29.561466 -44.8081,8.489551 0,0 z m 48.4326,-0.546875 c 4.6319,27.183562 -11.0816,27.91609 -6.2891,0.205078 -18.7252,-41.406902 -18.8419,41.362532 -25.7714,16.6302655 -1.9053,-29.0379795 -0.5347,-36.2164545 24.4897,-31.9085865 5.9362,2.290931 7.7404,9.426575 7.5708,15.073243 z m 18.833,-26.044922 c 0.1941,18.27748 23.5067,9.294556 0,18.891898 -6.226,21.8873043 29.3922,38.975874 -5.6311,23.7130822 1.879,-22.2383082 -9.6395,-30.7037022 2.4429,-42.6049802 l 3.1351,0 0.053,0 z"
       id="text22174-9"
       inkscape:connector-curvature="0" />
    <path
       style="font-style:normal;font-weight:normal;font-size:70px;line-height:125%;font-family:sans-serif;letter-spacing:0px;word-spacing:0px;fill:#000000;fill-opacity:1;stroke:none;stroke-width:1px;stroke-linecap:butt;stroke-linejoin:miter;stroke-opacity:1"
       d="m 1615.6506,899.26741 c 20.4101,-10.08186 16.8352,48.86268 26.6281,25.92592 0.8449,-21.31989 25.99,-39.53781 20.0613,-7.11554 4.8249,16.35679 -6.5271,50.74083 -6.7334,16.54458 1.8836,-29.47834 -1.0968,-32.19908 -9.9297,-2.72369 -13.2554,29.48085 -16.8018,-23.07888 -23.3271,-23.2755 -0.1767,9.98464 2.7644,55.54598 -6.6992,35.40438 0,-14.92005 0,-29.8401 0,-44.76015 z m 60.1562,12.74902 c 10.7463,-1.08461 10.3631,39.32027 0,38.28125 0,-12.76041 0,-25.52083 0,-38.28125 z m 0,-14.90234 c 18.4234,-3.32284 -3.9309,21.70209 0,0 z m 46.9629,16.37207 c -12.166,-4.98397 -41.9375,31.90272 -5.3662,31.75293 14.8055,17.35296 -55.5282,-11.12859 -13.6804,-32.80396 6.204,-2.17242 13.125,-1.62446 19.0466,1.05103 z m 33.1885,4.40918 c -24.0089,-13.63765 -12.8497,55.42111 -22.4219,22.99716 -2.0975,-27.99692 0.5709,-30.67693 22.3877,-29.45712 0.011,2.15332 0.023,4.30664 0.034,6.45996 z m 19.9951,-1.46973 c -43.9535,35.49472 42.4308,38.68156 0,0 z m 0,-5.33203 c 52.8408,15.48533 -26.4728,70.90267 -16.4062,11.68946 1.8398,-7.13865 9.0972,-12.18784 16.4062,-11.68946 z m 55.5078,2.39258 c -12.166,-4.98397 -41.9375,31.90272 -5.3662,31.75293 14.8055,17.35296 -55.5282,-11.12859 -13.6804,-32.80396 6.204,-2.17242 13.125,-1.62446 19.0466,1.05103 z m 25.8399,2.93945 c -43.9535,35.49472 42.4308,38.68156 0,0 z m 0,-5.33203 c 52.8408,15.48533 -26.4728,70.90267 -16.4063,11.68946 1.8399,-7.13865 9.0972,-12.18784 16.4063,-11.68946 z m 59.7803,16.09863 c 4.6318,27.18357 -11.0817,27.9161 -6.2891,0.20508 -18.7253,-41.4069 -18.842,41.36253 -25.7715,16.63027 -1.9053,-29.03798 -0.5347,-36.21646 24.4898,-31.90859 5.9362,2.29093 7.7404,9.42658 7.5708,15.07324 z m 18.833,-26.04492 c 0.1941,18.27748 23.5067,9.29456 0,18.8919 -6.2261,21.88731 29.3922,38.97588 -5.6311,23.71308 1.8789,-22.2383 -9.6395,-30.7037 2.4429,-42.60498 l 3.135,0 0.053,0 z m 43.4423,16.74805 c -24.0089,-13.63765 -12.8497,55.42111 -22.4218,22.99716 -2.0976,-27.99692 0.5708,-30.67693 22.3877,-29.45712 0.011,2.15332 0.023,4.30664 0.034,6.45996 z m 19.9952,-1.46973 c -43.9535,35.49472 42.4307,38.68156 0,0 z m 0,-5.33203 c 52.8408,15.48533 -26.4728,70.90267 -16.4063,11.68946 1.8398,-7.13865 9.0972,-12.18784 16.4063,-11.68946 z m -2.5293,-16.78222 c 22.5294,16.88752 4.3209,3.14381 -8.3741,12.85156 2.7914,-4.28386 5.5827,-8.56771 8.3741,-12.85156 z m 30.4883,2.80273 c 14.6982,4.1184 2.1095,35.52383 6.289,50.161 -12.8558,8.4795 -3.4307,-32.29532 -6.289,-44.00334 l 0,-3.13507 0,-3.02259 z m 52.1582,32.4707 c -15.1027,0.13505 -47.5277,10.9145 -8.2374,15.4834 22.9318,10.1346 -54.5437,4.35848 -22.1826,-28.4375 10.7085,-11.8457 32.4505,-3.82301 30.42,12.9541 z m -6.2891,-1.8457 c -7.2554,-29.56147 -44.8081,8.48955 0,0 z m 15.9619,7.45117 c -4.6242,-27.19897 11.076,-28.02798 6.2891,-0.23926 18.6832,41.49498 18.94,-41.33653 25.7715,-16.66444 1.892,28.9006 0.583,36.2993 -24.43,31.97694 -5.9507,-2.27735 -7.7993,-9.41075 -7.6306,-15.07324 z m 67.2656,-17.29492 c -24.0089,-13.63765 -12.8497,55.42111 -22.4218,22.99716 -2.0976,-27.99692 0.5708,-30.67693 22.3877,-29.45712 0.011,2.15332 0.023,4.30664 0.034,6.45996 z"
       id="text4153"
       inkscape:connector-curvature="0" />
  </g>
</svg>
