<?xml version="1.0"?>
<svg xmlns="http://www.w3.org/2000/svg" viewBox="0 0 151.63 42.66">
  <defs>
    <style>.cls-1 { fill:#404040 } .cls-2 { fill:#e4002c } .cls-3 { fill:#fff }</style>
  </defs>
  <title>search.ch_logo_RGB_black</title>
  <rect class="cls-1" width="151.63" height="42.66"/>
  <rect class="cls-2" x="117.43" y="8.48" width="25.73" height="25.74"/>
  <rect class="cls-3" x="120.29" y="29.97" width="1.39" height="1.39"/>
  <path class="cls-3" d="M126.83,21.21a4.54,4.54,0,0,0-2,.41,3.26,3.26,0,0,0-1.24,1.11,4.34,4.34,0,0,0-.63,1.64,12,12,0,0,0,0,4,4.35,4.35,0,0,0,.63,1.65,3.24,3.24,0,0,0,1.24,1.11,4.55,4.55,0,0,0,2,.41,10.55,10.55,0,0,0,1.45-.11,5.35,5.35,0,0,0,1.38-.39l0,0V29.77l-0.06,0a8.5,8.5,0,0,1-1.19.33,8.79,8.79,0,0,1-1.63.13,2.59,2.59,0,0,1-1.39-.33,2.12,2.12,0,0,1-.78-0.87,3.7,3.7,0,0,1-.34-1.23,13.7,13.7,0,0,1,0-2.85,3.68,3.68,0,0,1,.34-1.23,2.17,2.17,0,0,1,.78-0.87,2.63,2.63,0,0,1,1.39-.33,8.54,8.54,0,0,1,1.63.13,8.75,8.75,0,0,1,1.19.32l0.06,0V21.72h0a5.2,5.2,0,0,0-1.38-.39,10.11,10.11,0,0,0-1.45-.11"/>
  <path class="cls-3" d="M131.73,18.93V31.37h1.43V23.15a3.45,3.45,0,0,1,1-.45,5.66,5.66,0,0,1,1.48-.16,2.31,2.31,0,0,1,1.36.35,1.46,1.46,0,0,1,.44,1.28v7.21h1.47V24.22a3.06,3.06,0,0,0-.77-2.23,3.4,3.4,0,0,0-2.49-.78,4.68,4.68,0,0,0-1.34.2,3.8,3.8,0,0,0-1.16.56v-3h-1.43Z"/>
  <path class="cls-3" d="M11.48,20.15a1.94,1.94,0,0,0,.67.93,4.09,4.09,0,0,0,1.41.63,13.7,13.7,0,0,0,2.39.38,16.21,16.21,0,0,1,3.57.69A6,6,0,0,1,21.74,24a4,4,0,0,1,1.1,1.77,8.16,8.16,0,0,1,.3,2.32,7.16,7.16,0,0,1-.41,2.39,5.39,5.39,0,0,1-1.37,2.09,6.77,6.77,0,0,1-2.53,1.48,11.93,11.93,0,0,1-3.9.55,15.72,15.72,0,0,1-1.59-.09c-0.57-.06-1.14-0.13-1.69-0.23S10.56,34.1,10.07,34a8.6,8.6,0,0,1-1.23-.4V31a18.64,18.64,0,0,0,2.43.65A18.07,18.07,0,0,0,15,32a9.17,9.17,0,0,0,2.63-.32,4.33,4.33,0,0,0,1.66-.87,3,3,0,0,0,.86-1.22,4.15,4.15,0,0,0,.24-1.44,5.78,5.78,0,0,0-.14-1.33,2.14,2.14,0,0,0-.63-1.08A3.88,3.88,0,0,0,18.18,25a10.27,10.27,0,0,0-2.43-.44,16,16,0,0,1-3.62-.69A6,6,0,0,1,10,22.62a3.87,3.87,0,0,1-1.06-1.67A7,7,0,0,1,9,16.66a5.3,5.3,0,0,1,1.27-2,6.42,6.42,0,0,1,2.35-1.44,10.46,10.46,0,0,1,3.63-.55,20,20,0,0,1,3,.23,11.35,11.35,0,0,1,2.9.82v2.53a18.62,18.62,0,0,0-2.53-.69,17.32,17.32,0,0,0-3.39-.28,9.17,9.17,0,0,0-2.47.28,3.64,3.64,0,0,0-1.49.76,2.53,2.53,0,0,0-.74,1.16,4.9,4.9,0,0,0-.21,1.44,3.83,3.83,0,0,0,.19,1.22"/>
  <path class="cls-3" d="M50.27,24.05A3.7,3.7,0,0,0,49,25a3.16,3.16,0,0,0-.59,1.31,7.6,7.6,0,0,0-.14,1.48,7.69,7.69,0,0,0,.14,1.46A3.19,3.19,0,0,0,49,30.64a3.34,3.34,0,0,0,1.33,1A5.91,5.91,0,0,0,52.7,32a8.16,8.16,0,0,0,2.86-.44A14.49,14.49,0,0,0,58,30.32V23.47H55.12c-1.82,0-3.93.11-4.86,0.6m7.56-6.31A3,3,0,0,0,57,16.35a3.26,3.26,0,0,0-1.49-.8,9.27,9.27,0,0,0-2.37-.26,16.65,16.65,0,0,0-3.51.32,22.41,22.41,0,0,0-2.61.74V13.81a12.53,12.53,0,0,1,3-.86,19.18,19.18,0,0,1,3.12-.27,11.94,11.94,0,0,1,3.78.51,5.61,5.61,0,0,1,2.37,1.46,5.24,5.24,0,0,1,1.23,2.24,11.12,11.12,0,0,1,.35,2.89V34.21H58.09V32.6a9.39,9.39,0,0,1-5.47,2,9,9,0,0,1-3.39-.57A6.21,6.21,0,0,1,47,32.56a5.43,5.43,0,0,1-1.23-2.17,9.16,9.16,0,0,1-.08-4.84,4.83,4.83,0,0,1,1.06-2,5.83,5.83,0,0,1,2.19-1.5,18.85,18.85,0,0,1,6.17-.84l3,0V19.72a7.79,7.79,0,0,0-.22-2"/>
  <path class="cls-3" d="M78.29,19.36a9.26,9.26,0,0,1,1.35-3.48,6.91,6.91,0,0,1,2.65-2.34,9.22,9.22,0,0,1,4.25-.87,22.21,22.21,0,0,1,3.13.23,11.43,11.43,0,0,1,3,.82v2.53a18.42,18.42,0,0,0-2.57-.69,18.77,18.77,0,0,0-3.55-.28,5.72,5.72,0,0,0-3.06.72,4.7,4.7,0,0,0-1.74,1.9,7.85,7.85,0,0,0-.75,2.68,29,29,0,0,0,0,6.12,7.88,7.88,0,0,0,.75,2.68,4.71,4.71,0,0,0,1.74,1.9A5.72,5.72,0,0,0,86.5,32a18.89,18.89,0,0,0,3.55-.27,18.56,18.56,0,0,0,2.57-.7v2.53a11.41,11.41,0,0,1-3,.82,21.92,21.92,0,0,1-3.13.23,9.2,9.2,0,0,1-4.25-.87,6.9,6.9,0,0,1-2.65-2.34,9.25,9.25,0,0,1-1.35-3.49,25.11,25.11,0,0,1,0-8.57"/>
  <path class="cls-3" d="M110.08,14.32q-1.64-1.65-5.31-1.65a10.09,10.09,0,0,0-2.86.42,9.76,9.76,0,0,0-2.74,1.31V8.48H96.4V34.21h2.78V16.64a9.78,9.78,0,0,1,2.37-1,12.56,12.56,0,0,1,3.23-.34,5.16,5.16,0,0,1,3,.76,3.23,3.23,0,0,1,1.08,2.83V34.21h2.86V19c0-2.59-.55-3.59-1.63-4.69"/>
  <path class="cls-3" d="M77,13.35a5.86,5.86,0,0,0-3-.6,8.51,8.51,0,0,0-5.05,1.65V12.72H66.15V34.21h2.78V16.75a8.27,8.27,0,0,1,5-1.61,7.23,7.23,0,0,1,3,.54V13.35Z"/>
  <path class="cls-3" d="M30.28,17.4A4.52,4.52,0,0,1,32,15.77a5.87,5.87,0,0,1,2.87-.62,5.17,5.17,0,0,1,2.74.62,3.88,3.88,0,0,1,1.47,1.63,6.45,6.45,0,0,1,.59,2.35c0,0.56.07,1.14,0.08,1.72H29.2a16.64,16.64,0,0,1,.22-1.74,6.9,6.9,0,0,1,.86-2.33m12.27,6.25V23.53a36.3,36.3,0,0,0-.15-4.29,9.83,9.83,0,0,0-1-3.49A5.86,5.86,0,0,0,39,13.4a8.46,8.46,0,0,0-4.16-.87,9.24,9.24,0,0,0-4.26.87A6.78,6.78,0,0,0,28,15.75a9.43,9.43,0,0,0-1.33,3.49,23.76,23.76,0,0,0-.37,4.29,23.72,23.72,0,0,0,.37,4.29A9.42,9.42,0,0,0,28,31.32a6.78,6.78,0,0,0,2.64,2.35,9.27,9.27,0,0,0,4.26.87,25.24,25.24,0,0,0,3.28-.23,11.76,11.76,0,0,0,3.48-1V30.73a12.46,12.46,0,0,1-3,.93,22.84,22.84,0,0,1-3.73.26A6.18,6.18,0,0,1,32,31.34a4.33,4.33,0,0,1-1.72-1.55,6.19,6.19,0,0,1-.86-2.24,19.93,19.93,0,0,1-.33-3.91H42.55Z"/>
</svg>
