<?xml version="1.0" encoding="UTF-8" standalone="no"?>
<!-- Created with Inkscape (http://www.inkscape.org/) -->

<svg
   xmlns:dc="http://purl.org/dc/elements/1.1/"
   xmlns:cc="http://creativecommons.org/ns#"
   xmlns:rdf="http://www.w3.org/1999/02/22-rdf-syntax-ns#"
   xmlns:svg="http://www.w3.org/2000/svg"
   xmlns="http://www.w3.org/2000/svg"
   xmlns:sodipodi="http://sodipodi.sourceforge.net/DTD/sodipodi-0.dtd"
   xmlns:inkscape="http://www.inkscape.org/namespaces/inkscape"
   width="249.60066"
   height="132.2493"
   id="svg3058"
   version="1.1"
   inkscape:version="0.91 r13725"
   sodipodi:docname="clign-vite.svg"
   inkscape:export-filename="/home/pyr/Dropbox/MOOC-Leds/10-doc-pyr-mooc-led/303-pwm/images/clign-vite-b-300dpi.png"
   inkscape:export-xdpi="300"
   inkscape:export-ydpi="300">
  <defs
     id="defs3060">
    <marker
       inkscape:stockid="Arrow1Mend"
       orient="auto"
       refY="0"
       refX="0"
       id="Arrow1Mend"
       style="overflow:visible">
      <path
         id="path4097"
         d="M 0,0 5,-5 -12.5,0 5,5 0,0 z"
         style="fill-rule:evenodd;stroke:#000000;stroke-width:1pt"
         transform="matrix(-0.4,0,0,-0.4,-4,0)"
         inkscape:connector-curvature="0" />
    </marker>
  </defs>
  <sodipodi:namedview
     id="base"
     pagecolor="#ffffff"
     bordercolor="#666666"
     borderopacity="1.0"
     inkscape:pageopacity="0.0"
     inkscape:pageshadow="2"
     inkscape:zoom="1.979899"
     inkscape:cx="-66.008182"
     inkscape:cy="21.641188"
     inkscape:document-units="px"
     inkscape:current-layer="layer1"
     showgrid="true"
     inkscape:snap-nodes="true"
     inkscape:object-nodes="true"
     inkscape:snap-global="true"
     units="mm"
     fit-margin-top="4"
     fit-margin-left="4"
     fit-margin-bottom="4"
     fit-margin-right="4"
     inkscape:window-width="1393"
     inkscape:window-height="876"
     inkscape:window-x="47"
     inkscape:window-y="24"
     inkscape:window-maximized="1">
    <inkscape:grid
       type="xygrid"
       id="grid3066"
       units="mm"
       empspacing="5"
       dotted="true"
       visible="true"
       enabled="true"
       snapvisiblegridlinesonly="true"
       originx="-7.7321441mm"
       originy="-127.96004mm" />
  </sodipodi:namedview>
  <metadata
     id="metadata3063">
    <rdf:RDF>
      <cc:Work
         rdf:about="">
        <dc:format>image/svg+xml</dc:format>
        <dc:type
           rdf:resource="http://purl.org/dc/dcmitype/StillImage" />
        <dc:title />
      </cc:Work>
    </rdf:RDF>
  </metadata>
  <g
     inkscape:label="Calque 1"
     inkscape:groupmode="layer"
     id="layer1"
     transform="translate(-27.397361,-466.71116)">
    <path
       style="fill:none;stroke:#000000;stroke-width:1.24015749;stroke-linecap:butt;stroke-linejoin:miter;stroke-miterlimit:4;stroke-opacity:1;stroke-dasharray:none"
       d="m 42.190668,499.41786 10.629921,0 0,-17.71654 17.716536,0 0,17.71654 0,0 0,0"
       id="path3070"
       inkscape:connector-curvature="0"
       sodipodi:nodetypes="ccccccc" />
    <path
       style="fill:none;stroke:#000000;stroke-width:1.24015749;stroke-linecap:butt;stroke-linejoin:miter;stroke-miterlimit:4;stroke-opacity:1;stroke-dasharray:none"
       d="m 70.866146,499.60628 17.716537,0 0,-17.71654 17.716527,0 0,17.71654 0,0 0,0"
       id="path3070-4"
       inkscape:connector-curvature="0" />
    <path
       style="fill:none;stroke:#000000;stroke-width:1.24015749;stroke-linecap:butt;stroke-linejoin:miter;stroke-miterlimit:4;stroke-opacity:1;stroke-dasharray:none"
       d="m 106.49606,499.22101 17.71654,0 0,-17.71654 17.71653,0 0,17.71654 0,0 0,0"
       id="path3070-8"
       inkscape:connector-curvature="0" />
    <path
       style="fill:none;stroke:#000000;stroke-width:1.24015749;stroke-linecap:butt;stroke-linejoin:miter;stroke-miterlimit:4;stroke-opacity:1;stroke-dasharray:none"
       d="m 141.40326,499.41786 17.71654,0 0,-17.71654 17.71653,0 0,17.71654 0,0 0,0"
       id="path3070-7"
       inkscape:connector-curvature="0" />
    <path
       style="fill:none;stroke:#000000;stroke-width:1.24015749;stroke-linecap:butt;stroke-linejoin:miter;stroke-miterlimit:4;stroke-opacity:1;stroke-dasharray:none"
       d="m 177.16536,499.60628 17.71653,0 0,-17.71654 17.71653,0 0,17.71654 0,0 0,0"
       id="path3070-4-3"
       inkscape:connector-curvature="0" />
    <path
       style="fill:none;stroke:#000000;stroke-width:1.24015749;stroke-linecap:butt;stroke-linejoin:miter;stroke-miterlimit:4;stroke-opacity:1;stroke-dasharray:none"
       d="m 212.79527,499.22101 17.71654,0 0,-17.71654 17.71653,0 0,17.71654 0,0 0,0"
       id="path3070-8-4"
       inkscape:connector-curvature="0" />
    <path
       style="fill:none;stroke:#000000;stroke-width:1.24015749;stroke-linecap:butt;stroke-linejoin:miter;stroke-miterlimit:4;stroke-opacity:1;stroke-dasharray:none"
       d="m 247.70248,499.41786 c 3.5433,0 14.17322,0 14.17322,0"
       id="path3144"
       inkscape:connector-curvature="0"
       sodipodi:nodetypes="cc" />
    <path
       style="fill:none;stroke:#000000;stroke-width:1.24015749;stroke-linecap:butt;stroke-linejoin:miter;stroke-miterlimit:4;stroke-opacity:1;stroke-dasharray:none"
       d="m 42.519685,556.29919 3.543307,0 0,-17.71653 3.543307,0 0,17.71653"
       id="path3068-8"
       inkscape:connector-curvature="0" />
    <path
       style="fill:none;stroke:#000000;stroke-width:1.24015749;stroke-linecap:butt;stroke-linejoin:miter;stroke-miterlimit:4;stroke-opacity:1;stroke-dasharray:none"
       d="m 49.606299,556.29919 3.543307,0 0,-17.71653 3.543307,0 0,17.71653"
       id="path3068-4"
       inkscape:connector-curvature="0" />
    <path
       style="fill:none;stroke:#000000;stroke-width:1.24015749;stroke-linecap:butt;stroke-linejoin:miter;stroke-miterlimit:4;stroke-opacity:1;stroke-dasharray:none"
       d="m 56.692913,556.29919 3.543307,0 0,-17.71653 3.543307,0 0,17.71653"
       id="path3068-8-4"
       inkscape:connector-curvature="0" />
    <path
       style="fill:none;stroke:#000000;stroke-width:1.24015749;stroke-linecap:butt;stroke-linejoin:miter;stroke-miterlimit:4;stroke-opacity:1;stroke-dasharray:none"
       d="m 63.779528,556.29919 3.543307,0 0,-17.71653 3.543307,0 0,17.71653"
       id="path3068-0"
       inkscape:connector-curvature="0" />
    <path
       style="fill:none;stroke:#000000;stroke-width:1.24015749;stroke-linecap:butt;stroke-linejoin:miter;stroke-miterlimit:4;stroke-opacity:1;stroke-dasharray:none"
       d="m 70.866142,556.29919 3.543307,0 0,-17.71653 3.543307,0 0,17.71653"
       id="path3068-8-43"
       inkscape:connector-curvature="0" />
    <path
       style="fill:none;stroke:#000000;stroke-width:1.24015749;stroke-linecap:butt;stroke-linejoin:miter;stroke-miterlimit:4;stroke-opacity:1;stroke-dasharray:none"
       d="m 77.952756,556.29919 3.543307,0 0,-17.71653 3.543307,0 0,17.71653"
       id="path3068-4-4"
       inkscape:connector-curvature="0" />
    <path
       style="fill:none;stroke:#000000;stroke-width:1.24015749;stroke-linecap:butt;stroke-linejoin:miter;stroke-miterlimit:4;stroke-opacity:1;stroke-dasharray:none"
       d="m 85.03937,556.29919 3.543307,0 0,-17.71653 3.543307,0 0,17.71653"
       id="path3068-8-4-3"
       inkscape:connector-curvature="0" />
    <path
       style="fill:none;stroke:#000000;stroke-width:1.24015749;stroke-linecap:butt;stroke-linejoin:miter;stroke-miterlimit:4;stroke-opacity:1;stroke-dasharray:none"
       d="m 92.125984,556.29919 3.543307,0 0,-17.71653 3.543307,0 0,17.71653"
       id="path3068-40"
       inkscape:connector-curvature="0" />
    <path
       style="fill:none;stroke:#000000;stroke-width:1.24015749;stroke-linecap:butt;stroke-linejoin:miter;stroke-miterlimit:4;stroke-opacity:1;stroke-dasharray:none"
       d="m 99.212598,556.29919 3.543312,0 0,-17.71653 3.5433,0 0,17.71653"
       id="path3068-8-439"
       inkscape:connector-curvature="0" />
    <path
       style="fill:none;stroke:#000000;stroke-width:1.24015749;stroke-linecap:butt;stroke-linejoin:miter;stroke-miterlimit:4;stroke-opacity:1;stroke-dasharray:none"
       d="m 106.29921,556.29919 3.54331,0 0,-17.71653 3.54331,0 0,17.71653"
       id="path3068-4-8"
       inkscape:connector-curvature="0" />
    <path
       style="fill:none;stroke:#000000;stroke-width:1.24015749;stroke-linecap:butt;stroke-linejoin:miter;stroke-miterlimit:4;stroke-opacity:1;stroke-dasharray:none"
       d="m 113.38583,556.29919 3.5433,0 0,-17.71653 3.54331,0 0,17.71653"
       id="path3068-8-4-7"
       inkscape:connector-curvature="0" />
    <path
       style="fill:none;stroke:#000000;stroke-width:1.24015749;stroke-linecap:butt;stroke-linejoin:miter;stroke-miterlimit:4;stroke-opacity:1;stroke-dasharray:none"
       d="m 120.47244,556.29919 3.54331,0 0,-17.71653 3.5433,0 0,17.71653"
       id="path3068-0-3"
       inkscape:connector-curvature="0" />
    <path
       style="fill:none;stroke:#000000;stroke-width:1.24015749;stroke-linecap:butt;stroke-linejoin:miter;stroke-miterlimit:4;stroke-opacity:1;stroke-dasharray:none"
       d="m 127.55905,556.29919 3.54331,0 0,-17.71653 3.54331,0 0,17.71653"
       id="path3068-8-43-2"
       inkscape:connector-curvature="0" />
    <path
       style="fill:none;stroke:#000000;stroke-width:1.24015749;stroke-linecap:butt;stroke-linejoin:miter;stroke-miterlimit:4;stroke-opacity:1;stroke-dasharray:none"
       d="m 134.64567,556.29919 3.54331,0 0,-17.71653 3.5433,0 0,17.71653"
       id="path3068-4-4-8"
       inkscape:connector-curvature="0" />
    <path
       style="fill:none;stroke:#000000;stroke-width:1.24015749;stroke-linecap:butt;stroke-linejoin:miter;stroke-miterlimit:4;stroke-opacity:1;stroke-dasharray:none"
       d="m 141.73228,556.29919 3.54331,0 0,-17.71653 3.54331,0 0,17.71653"
       id="path3068-8-4-3-1"
       inkscape:connector-curvature="0" />
    <path
       style="fill:none;stroke:#000000;stroke-width:1.24015749;stroke-linecap:butt;stroke-linejoin:miter;stroke-miterlimit:4;stroke-opacity:1;stroke-dasharray:none"
       d="m 148.81889,556.29919 3.54331,0 0,-17.71653 3.5433,0 0,17.71653"
       id="path3068-1"
       inkscape:connector-curvature="0" />
    <path
       style="fill:none;stroke:#000000;stroke-width:1.24015749;stroke-linecap:butt;stroke-linejoin:miter;stroke-miterlimit:4;stroke-opacity:1;stroke-dasharray:none"
       d="m 155.9055,556.29919 3.54331,0 0,-17.71653 3.54331,0 0,17.71653"
       id="path3068-8-8"
       inkscape:connector-curvature="0" />
    <path
       style="fill:none;stroke:#000000;stroke-width:1.24015749;stroke-linecap:butt;stroke-linejoin:miter;stroke-miterlimit:4;stroke-opacity:1;stroke-dasharray:none"
       d="m 162.99212,556.29919 3.5433,0 0,-17.71653 3.54331,0 0,17.71653"
       id="path3068-4-85"
       inkscape:connector-curvature="0" />
    <path
       style="fill:none;stroke:#000000;stroke-width:1.24015749;stroke-linecap:butt;stroke-linejoin:miter;stroke-miterlimit:4;stroke-opacity:1;stroke-dasharray:none"
       d="m 170.07873,556.29919 3.54331,0 0,-17.71653 3.54331,0 0,17.71653"
       id="path3068-8-4-9"
       inkscape:connector-curvature="0" />
    <path
       style="fill:none;stroke:#000000;stroke-width:1.24015749;stroke-linecap:butt;stroke-linejoin:miter;stroke-miterlimit:4;stroke-opacity:1;stroke-dasharray:none"
       d="m 177.16535,556.29919 3.5433,0 0,-17.71653 3.54331,0 0,17.71653"
       id="path3068-0-1"
       inkscape:connector-curvature="0" />
    <path
       style="fill:none;stroke:#000000;stroke-width:1.24015749;stroke-linecap:butt;stroke-linejoin:miter;stroke-miterlimit:4;stroke-opacity:1;stroke-dasharray:none"
       d="m 184.25196,556.29919 3.54331,0 0,-17.71653 3.5433,0 0,17.71653"
       id="path3068-8-43-1"
       inkscape:connector-curvature="0" />
    <path
       style="fill:none;stroke:#000000;stroke-width:1.24015749;stroke-linecap:butt;stroke-linejoin:miter;stroke-miterlimit:4;stroke-opacity:1;stroke-dasharray:none"
       d="m 191.33857,556.29919 3.54331,0 0,-17.71653 3.54331,0 0,17.71653"
       id="path3068-4-4-0"
       inkscape:connector-curvature="0" />
    <path
       style="fill:none;stroke:#000000;stroke-width:1.24015749;stroke-linecap:butt;stroke-linejoin:miter;stroke-miterlimit:4;stroke-opacity:1;stroke-dasharray:none"
       d="m 198.42519,556.29919 3.54331,0 0,-17.71653 3.5433,0 0,17.71653"
       id="path3068-8-4-3-10"
       inkscape:connector-curvature="0" />
    <path
       style="fill:none;stroke:#000000;stroke-width:1.24015749;stroke-linecap:butt;stroke-linejoin:miter;stroke-miterlimit:4;stroke-opacity:1;stroke-dasharray:none"
       d="m 205.5118,556.29919 3.54331,0 0,-17.71653 3.54331,0 0,17.71653"
       id="path3068-40-5"
       inkscape:connector-curvature="0" />
    <path
       style="fill:none;stroke:#000000;stroke-width:1.24015749;stroke-linecap:butt;stroke-linejoin:miter;stroke-miterlimit:4;stroke-opacity:1;stroke-dasharray:none"
       d="m 212.59842,556.29919 3.54331,0 0,-17.71653 3.5433,0 0,17.71653"
       id="path3068-8-439-7"
       inkscape:connector-curvature="0" />
    <path
       style="fill:none;stroke:#000000;stroke-width:1.24015749;stroke-linecap:butt;stroke-linejoin:miter;stroke-miterlimit:4;stroke-opacity:1;stroke-dasharray:none"
       d="m 219.68503,556.29919 3.54331,0 0,-17.71653 3.54331,0 0,17.71653"
       id="path3068-4-8-8"
       inkscape:connector-curvature="0" />
    <path
       style="fill:none;stroke:#000000;stroke-width:1.24015749;stroke-linecap:butt;stroke-linejoin:miter;stroke-miterlimit:4;stroke-opacity:1;stroke-dasharray:none"
       d="m 226.77165,556.29919 3.5433,0 0,-17.71653 3.54331,0 0,17.71653"
       id="path3068-8-4-7-0"
       inkscape:connector-curvature="0" />
    <path
       style="fill:none;stroke:#000000;stroke-width:1.24015749;stroke-linecap:butt;stroke-linejoin:miter;stroke-miterlimit:4;stroke-opacity:1;stroke-dasharray:none"
       d="m 233.85826,556.29919 3.54331,0 0,-17.71653 3.5433,0 0,17.71653"
       id="path3068-0-3-2"
       inkscape:connector-curvature="0" />
    <path
       style="fill:none;stroke:#000000;stroke-width:1.24015749;stroke-linecap:butt;stroke-linejoin:miter;stroke-miterlimit:4;stroke-opacity:1;stroke-dasharray:none"
       d="m 240.94487,556.29919 3.54331,0 0,-17.71653 3.54331,0 0,17.71653"
       id="path3068-8-43-2-0"
       inkscape:connector-curvature="0" />
    <path
       style="fill:none;stroke:#000000;stroke-width:1.24015749;stroke-linecap:butt;stroke-linejoin:miter;stroke-miterlimit:4;stroke-opacity:1;stroke-dasharray:none"
       d="m 248.03149,556.29919 3.54331,0 0,-17.71653 3.5433,0 0,17.71653"
       id="path3068-4-4-8-6"
       inkscape:connector-curvature="0" />
    <path
       style="fill:none;stroke:#000000;stroke-width:1.24015749;stroke-linecap:butt;stroke-linejoin:miter;stroke-miterlimit:4;stroke-opacity:1;stroke-dasharray:none"
       d="m 255.1181,556.29919 3.54331,0 0,-17.71653 3.54331,0 0,17.71653"
       id="path3068-8-4-3-1-7"
       inkscape:connector-curvature="0" />
    <path
       style="fill:none;stroke:#000000;stroke-width:0.96402788px;stroke-linecap:butt;stroke-linejoin:miter;stroke-opacity:1;marker-end:url(#Arrow1Mend)"
       d="m 46.045006,566.92911 16.297358,0"
       id="path4082"
       inkscape:connector-curvature="0" />
    <path
       style="fill:none;stroke:#000000;stroke-width:0.95784789px;stroke-linecap:butt;stroke-linejoin:miter;stroke-opacity:1;marker-end:url(#Arrow1Mend)"
       d="m 88.603753,566.92911 -16.061004,0"
       id="path4528"
       inkscape:connector-curvature="0"
       sodipodi:nodetypes="cc" />
    <text
       xml:space="preserve"
       style="font-size:10px;font-style:normal;font-weight:normal;line-height:125%;letter-spacing:0px;word-spacing:0px;fill:#ff0000;fill-opacity:1;stroke:none;font-family:Sans"
       x="49.6063"
       y="584.64563"
       id="text4712"
       sodipodi:linespacing="125%"><tspan
         sodipodi:role="line"
         id="tspan4714"
         x="49.6063"
         y="584.64563">&lt; 20ms</tspan></text>
  </g>
</svg>
